<?xml version="1.0" encoding="UTF-8" standalone="no"?>
<!-- Created with Inkscape (http://www.inkscape.org/) -->

<svg
   version="1.1"
   id="svg2"
   width="1140"
   height="855"
   viewBox="0 0 1140 855"
   sodipodi:docname="Logo.svg"
   inkscape:version="1.2.1 (9c6d41e410, 2022-07-14, custom)"
   xml:space="preserve"
   xmlns:inkscape="http://www.inkscape.org/namespaces/inkscape"
   xmlns:sodipodi="http://sodipodi.sourceforge.net/DTD/sodipodi-0.dtd"
   xmlns="http://www.w3.org/2000/svg"
   xmlns:svg="http://www.w3.org/2000/svg"><defs
     id="defs6"><rect
       x="1024.1692"
       y="49.160878"
       width="4072.3636"
       height="560.04658"
       id="rect487" /><linearGradient
       id="imagebot_21"
       y2="1"><stop
         stop-color="#e470e6"
         offset="0"
         id="stop7" /><stop
         stop-color="#a849a3"
         offset="1"
         id="stop9" /></linearGradient></defs><sodipodi:namedview
     id="namedview4"
     pagecolor="#505050"
     bordercolor="#eeeeee"
     borderopacity="1"
     inkscape:showpageshadow="0"
     inkscape:pageopacity="0"
     inkscape:pagecheckerboard="0"
     inkscape:deskcolor="#505050"
     showgrid="false"
     inkscape:zoom="0.24815637"
     inkscape:cx="1932.2494"
     inkscape:cy="282.08021"
     inkscape:window-width="1850"
     inkscape:window-height="1011"
     inkscape:window-x="70"
     inkscape:window-y="32"
     inkscape:window-maximized="1"
     inkscape:current-layer="g8" /><g
     inkscape:groupmode="layer"
     inkscape:label="Image"
     id="g8"><rect
       style="fill:#fbfbfb;stroke:#000000;stroke-width:5;stroke-linecap:round;stroke-dasharray:none;fill-opacity:1"
       id="rect893"
       width="4632.3608"
       height="858.19916"
       x="-72.777916"
       y="-62.871853"
       ry="13.944601" /><path
       style="fill:#000000;stroke:#000000;stroke-opacity:1"
       d="m 371.87507,739.9751 c -44.14135,-6.44189 -68.12025,-12.41635 -98,-24.41717 -83.58192,-33.56961 -152.41181,-98.36841 -190.175613,-179.03781 -14.08131,-30.07989 -23.06115,-59.42933 -29.98435,-98 -2.19559,-12.2321 -2.332,-15.39229 -2.30935,-53.5 0.0238,-40.10855 0.0515,-40.64981 2.85795,-56 15.71421,-85.94955 52.265773,-152.40063 115.111363,-209.27355 47.10536,-42.628589 105.97074,-71.586409 171,-84.12054 25.27685,-4.872013 27.54443,-5.049166 65,-5.0781 37.73509,-0.02915 41.88176,0.286077 67,5.093282 57.05845,10.920021 110.03612,35.390249 156,72.055938 12.67218,10.10867 39.67209,36.66397 50.65716,49.82297 41.36544,49.55161 65.90395,103.28913 78.54146,172 2.72526,14.8174 2.75866,15.49911 2.74322,56 l -0.0156,41 -3.26205,17 c -11.28766,58.82499 -29.94861,103.60192 -62.35664,149.6247 -13.83116,19.64169 -49.83482,57.30757 -68.80753,71.98425 -32.21089,24.9173 -68.32643,44.51558 -104.55377,56.73663 -26.07542,8.79637 -55.61172,15.32888 -77.44623,17.12869 -18.45641,1.52136 -64.04078,2.14226 -72,0.98071 z m 81,-52.84056 c 54.57544,-9.29912 102.20579,-30.39616 144.5,-64.00376 9.20512,-7.31453 31.71928,-29.31863 40.79498,-39.87076 24.69061,-28.7073 45.60213,-65.67693 56.98257,-100.7399 10.76029,-33.15231 14.62102,-55.45594 15.40578,-89 0.7881,-33.68684 -0.98264,-50.95773 -8.22379,-80.21051 C 688.41083,257.06034 661.39616,209.16249 620.95448,169.02012 575.62927,124.03037 519.28212,95.000461 456.13724,84.106691 c -27.08111,-4.67203 -74.48853,-4.70898 -99.89509,-0.0778 -34.77606,6.33901 -70.40156,18.797559 -98.46377,34.433649 -85.06822,47.39946 -142.64539,132.64412 -155.05109,229.55758 -1.794,14.01476 -1.81976,63.29467 -0.0395,75.5 8.2477,56.54448 28.83098,105.81083 62.36124,149.26241 16.12858,20.90089 42.9954,46.53053 64.826,61.84083 36.98449,25.93808 80.3574,43.88944 125.5,51.94246 15.28871,2.72737 26.92134,3.32294 57,2.91832 22.83855,-0.30723 31.44333,-0.80643 40.5,-2.3496 z m -134,-301.58874 c 0,-77.83912 0.25707,-141.52568 0.57128,-141.52568 2.05096,0 248.02151,140.78089 247.23314,141.50354 -1.73349,1.58896 -233.90135,134.37584 -244.55442,139.87129 l -3.25,1.67653 z"
       id="path293" /><text
       xml:space="preserve"
       id="text485"
       style="font-style:normal;font-weight:normal;font-size:400px;line-height:1.25;font-family:sans-serif;letter-spacing:0px;word-spacing:0px;white-space:pre;shape-inside:url(#rect487);display:inline;fill:#000000;fill-opacity:1;stroke:none"
       transform="translate(-200.52813,-91.9444)"><tspan
         x="1024.1699"
         y="418.61408"
         id="tspan1783"><tspan
           style="font-family:Chirota;-inkscape-font-specification:Chirota"
           id="tspan1781">DIY Media Player Box</tspan></tspan></text><g
       id="imagebot_1"
       transform="matrix(1.6703724,0,0,1.6703724,809.26423,365.1294)"
       style="fill:#3c76e4;fill-opacity:1;stroke:#0341b7;stroke-opacity:1"><title
         id="title12">Layer 1</title><line
         id="imagebot_9"
         stroke-linejoin="round"
         x1="52"
         stroke-opacity="null"
         fill-opacity="null"
         x2="548"
         stroke="#000000"
         stroke-linecap="round"
         stroke-dasharray="none"
         stroke-width="3"
         y1="107"
         y2="107"
         fill="none"
         style="fill:#3c76e4;fill-opacity:1;stroke:#0341b7;stroke-opacity:1" /><line
         id="imagebot_10"
         stroke-linejoin="round"
         x1="53"
         stroke-opacity="null"
         fill-opacity="null"
         x2="550"
         stroke="#000000"
         stroke-linecap="round"
         stroke-dasharray="none"
         stroke-width="3"
         y1="133"
         y2="134"
         fill="none"
         style="fill:#3c76e4;fill-opacity:1;stroke:#0341b7;stroke-opacity:1" /><line
         id="imagebot_11"
         stroke-linejoin="round"
         x1="54"
         stroke-opacity="null"
         fill-opacity="null"
         x2="553"
         stroke="#000000"
         stroke-linecap="round"
         stroke-dasharray="none"
         stroke-width="3"
         y1="161"
         y2="161"
         fill="none"
         style="fill:#3c76e4;fill-opacity:1;stroke:#0341b7;stroke-opacity:1" /><line
         id="imagebot_12"
         stroke-linejoin="round"
         x1="54"
         stroke-opacity="null"
         fill-opacity="null"
         x2="552"
         stroke="#000000"
         stroke-linecap="round"
         stroke-dasharray="none"
         stroke-width="3"
         y1="190"
         y2="188"
         fill="none"
         style="fill:#3c76e4;fill-opacity:1;stroke:#0341b7;stroke-opacity:1" /><path
         id="imagebot_13"
         stroke-linejoin="round"
         d="m 142.58,298.09 c -19.94,-3.17 -30.7,-32.79 -10.78,-43.64 20.76,-10.7 33.11,27.39 10.43,31.11 -12.42,4.65 16.13,12.44 21.45,4.62 16.62,-8.04 14.05,-28.98 10.05,-43.73 -1.39,-11.3 -3.12,-23.4 -17.38,-16.98 -34.39,2.77 -61.618,-32.12 -58.883,-64.76 0.929,-30.79 26.143,-51.87 44.823,-73.25 -6.13,-27.969 -7.99,-60.28 9.79,-84.653 16.37,-19.813 24.67,16.442 27.44,28.745 6.15,28.756 -6.11,58.975 -26.52,79.248 1.95,9.61 3.87,19.24 5.86,28.84 21.56,-4.16 42.14,14.06 43.32,35.4 3.33,19.28 -9.03,37.48 -25.92,45.76 -0.27,16.55 8.87,33.72 5.59,50.81 -3.16,17.67 -22.98,26.34 -39.27,22.48 z m 22.51,-75.41 c 6.11,-11.46 -4.97,-31.72 -5.58,-46.44 0.24,-25.67 -26.99,4.97 -18.89,17.58 2.4,7.46 23.23,21.14 4.09,12.7 -19.98,-11.96 -19.06,-42.73 -0.81,-55.72 15.32,-3.39 5.97,-23.83 3.08,-30.54 -18.81,17.14 -40.14,38.73 -36.89,66.48 2.44,26.01 30.8,41.79 55,35.94 z m 12.66,-4.96 c 17.94,-11.52 17.35,-41.75 -2.28,-51.12 -20.94,-11.07 -6.6,17.92 -6.21,28.96 2.9,4.23 1.26,28.84 8.49,22.16 z M 155.64,79.15 c 11.03,-13.352 23.65,-32.627 15.9,-50.28 -16.7,-11.019 -25.97,18.772 -26.38,31.816 -0.15,8.459 -1.4,37.613 10.48,18.464 z"
         stroke-opacity="null"
         transform="matrix(0.44744,0,0,0.44744,-13,68)"
         stroke="#000000"
         stroke-linecap="round"
         stroke-dasharray="none"
         stroke-width="3"
         fill="#aad4ff"
         style="fill:#3c76e4;fill-opacity:1;stroke:#0341b7;stroke-opacity:1" /><path
         id="imagebot_14"
         d="m 116.09017,187.27164 c -4.28035,-0.87023 -7.5136,-5.09397 -6.44529,-9.48749 1.52112,-6.15521 7.26597,-10.41433 13.0179,-12.43776 3.82754,-1.27349 8.17156,-1.08247 11.7727,0.80655 0.31838,-23.51712 0.13445,-47.04837 0.18395,-70.573961 1.30179,0 2.96441,-0.41885 2.61066,1.46097 0.18394,4.224451 2.25691,8.091611 5.4477,10.816891 7.11741,6.63133 15.12623,13.83009 16.76055,23.94018 0.46693,4.25911 -0.0353,8.56068 -0.97636,12.72074 2.8017,5.23546 2.63189,11.58168 1.49281,17.26286 -0.73579,2.99271 -1.9456,5.88635 -3.47379,8.56068 -3.61529,1.68385 0.43156,-2.75216 0.37498,-4.35108 1.95975,-4.79683 2.18616,-10.14548 1.2947,-15.19699 -1.93852,-7.40039 -9.26817,-11.00861 -15.15453,-14.8786 -2.13661,-0.83484 -6.69287,-5.86511 -5.78729,-0.93388 -0.19809,13.36455 -0.16272,26.72912 -0.22641,40.09369 -2.47621,6.19766 -8.14324,10.93078 -14.73708,12.11229 -2.01637,0.34668 -4.13178,0.48111 -6.1552,0.0849 v 0 z m 41.09126,-50.53631 c 0.0567,-7.59849 -5.61044,-13.75368 -11.15719,-18.26609 -2.78045,-2.09418 -5.72363,-4.31287 -8.84367,-5.66845 0.19102,4.37374 2.19323,8.63853 4.58456,12.26795 4.51382,6.04908 11.33406,10.09595 15.11207,16.75348 0.45279,-1.65555 0.31837,-3.38891 0.30423,-5.08689 z"
         stroke-opacity="null"
         inkscape:connector-curvature="0"
         style="fill:#3c76e4;stroke:#0341b7;stroke-width:2.12248;stroke-linecap:round;stroke-linejoin:round;stroke-dasharray:none;fill-opacity:1;stroke-opacity:1" /><path
         id="imagebot_15"
         d="m 173.27373,187.18677 c -5.74116,-1.03506 -7.72108,-8.28759 -4.29835,-12.6377 4.54313,-6.72099 14.26026,-11.24594 21.87436,-7.00774 0.15182,-23.66756 0.0643,-47.33511 0.0873,-71.000553 18.98453,-3.831732 38.01104,-7.465127 56.99906,-11.261336 -0.0421,26.524499 -0.077,53.049689 -0.11888,79.574909 -2.97935,8.02181 -12.58876,13.58185 -20.96029,11.09907 -4.98654,-1.49667 -6.18247,-7.92392 -3.40596,-11.86841 3.79762,-5.88173 10.87529,-9.91713 17.98795,-8.81562 2.02819,-0.20491 5.0145,3.08075 4.15428,-0.63642 V 98.855708 c -17.42143,3.508072 -34.88553,6.849672 -52.32025,10.319972 -0.0595,21.63587 0.14821,43.27523 -0.15527,64.91041 -0.5553,6.56712 -6.86226,11.05013 -12.7503,12.80556 -2.32613,0.39165 -4.74806,0.63643 -7.09378,0.29372 v 0 z m 45.45659,-88.205186 c 8.95901,-1.762417 17.91798,-3.503159 26.86299,-5.285169 1.14,-4.53734 -3.95845,-1.590526 -6.44823,-1.479672 -15.28834,3.017596 -30.58577,5.991347 -45.872,9.021237 -1.1393,4.53756 3.95845,1.59038 6.45103,1.47988 6.33633,-1.24838 12.67268,-2.49327 19.00621,-3.736055 z"
         stroke-opacity="null"
         style="fill:#3c76e4;stroke:#0341b7;stroke-width:2.09813;stroke-linecap:round;stroke-linejoin:round;stroke-dasharray:none;fill-opacity:1;stroke-opacity:1"
         inkscape:connector-curvature="0" /><path
         id="imagebot_19"
         d="m 483.52916,187.47063 c -4.23672,-0.71552 -8.17424,-4.60532 -7.37198,-9.14994 0.40328,-4.9826 4.36682,-8.99819 8.35203,-11.6391 5.30782,-3.61228 12.56274,-4.95658 18.41265,-1.83864 0.34257,-25.12985 0.14738,-50.26835 0.19946,-75.402538 3.686,-0.892879 2.49348,3.935356 3.33042,6.168207 0.80224,6.568001 5.20377,11.719741 9.58794,16.316401 5.43793,5.78484 11.21409,11.91661 12.97903,19.92607 1.93408,9.29739 -1.15348,18.80293 -5.15605,27.13328 -0.29054,2.67127 -5.19075,6.53506 -2.85773,1.70857 3.92885,-8.25231 7.17684,-17.75785 4.49258,-26.89478 -2.55417,-9.11959 -10.51159,-16.73444 -19.98678,-18.10043 -0.0608,19.25394 0.15173,38.51218 -0.22551,57.76612 -0.928,5.66776 -5.85422,9.87846 -10.79346,12.28088 -3.40846,1.48305 -7.25057,2.38071 -10.9626,1.7259 z"
         stroke-opacity="null"
         fill-opacity="null"
         inkscape:connector-curvature="0"
         style="fill:#3c76e4;stroke:#0341b7;stroke-width:1.30094;stroke-linecap:round;stroke-linejoin:round;stroke-dasharray:none;fill-opacity:1;stroke-opacity:1" /><path
         id="imagebot_26"
         d="m 261.30229,158.71305 c -6.22764,-1.12783 -8.37512,-8.99199 -4.66247,-13.71046 4.92794,-7.28874 15.4682,-12.19903 23.72669,-7.6033 0.1642,-25.75604 0.0691,-51.509776 0.0944,-77.268124 20.5941,-4.070176 41.22501,-7.916319 61.82524,-11.955805 -0.0383,28.770508 -0.0844,57.537179 -0.13043,86.306129 -3.23005,8.70811 -13.65676,14.73858 -22.73314,12.03791 -5.409,-1.61885 -6.70562,-8.59302 -3.69039,-12.86652 4.12004,-6.3757 11.79238,-10.75661 19.50308,-9.55973 2.20196,-0.22249 5.43969,3.33747 4.51134,-0.69051 -0.0768,-22.75922 0.19181,-45.521514 -0.19948,-68.273072 -3.35282,-1.247522 -9.32957,1.622699 -13.63375,1.855172 -14.3933,2.800403 -28.80963,5.451963 -43.16457,8.416555 0.43272,25.214381 0.23093,50.444095 0.16648,75.663075 0.76187,5.76193 -2.41142,11.17859 -7.23579,14.18615 -4.16378,3.02291 -9.30731,4.12005 -14.37719,3.46023 v 0 z"
         stroke-opacity="null"
         fill-opacity="null"
         style="fill:#3c76e4;stroke:#0341b7;stroke-width:2.3017;stroke-linecap:round;stroke-linejoin:round;stroke-dasharray:none;fill-opacity:1;stroke-opacity:1"
         inkscape:connector-curvature="0" /><path
         id="imagebot_31"
         d="m 340.21183,186.75772 c -6.87826,-0.92072 -8.85264,-9.7827 -4.29368,-14.40791 4.99133,-6.56736 14.54315,-10.71781 22.34413,-6.66806 0.31795,-25.03942 0.13812,-50.08531 0.18559,-75.125436 39.38474,-7.882278 78.82272,-15.501994 118.2269,-23.299392 -0.11516,27.68362 0.27333,55.373728 -0.27334,83.052298 -0.9495,7.14282 -8.23617,11.88312 -14.79634,13.36492 -5.74735,1.76232 -13.83966,-2.05724 -12.48015,-8.94112 1.68321,-7.44492 9.3655,-12.81103 16.7457,-13.4656 3.66131,-1.40267 9.69638,4.6396 8.02037,-2.06445 0.10078,-13.43682 0.0504,-26.87439 0.0575,-40.311211 -18.38574,3.594421 -36.76429,7.214021 -55.15001,10.820671 -0.1079,17.52831 0.26614,35.07245 -0.28054,52.58781 -1.53214,7.63915 -9.75394,12.68874 -17.17872,13.08437 -7.15865,1.38829 -13.01317,-6.92702 -8.6167,-12.99086 4.6324,-7.53124 15.20708,-12.60243 23.50799,-8.03476 0.15825,-14.69565 0.0719,-29.39129 0.0935,-44.0819 -18.44687,3.76059 -36.95561,7.22986 -55.40249,10.98973 -0.12376,17.74914 0.30283,35.51625 -0.33664,53.24742 -2.50106,8.12828 -12.1284,13.39368 -20.37249,12.24277 h 7e-5 z m 48.70852,-76.53529 c 9.05045,-1.80189 18.11672,-3.534 27.14415,-5.44739 1.41705,-6.504776 -8.61022,0.0418 -12.1802,-0.62868 -14.31943,2.82332 -28.64679,5.60779 -42.96335,8.44766 -1.08833,6.26957 7.34135,0.59559 10.7955,1.01782 5.73368,-1.13147 11.4688,-2.26081 17.2039,-3.38941 z m -1.04012,-8.4268 c 9.48059,-1.866619 18.96982,-3.708796 28.44321,-5.595558 0.78406,-6.281082 -8.22179,-0.133834 -11.73493,-0.74306 -14.51796,2.842021 -29.02947,5.717138 -43.54383,8.577848 -1.3329,6.06959 6.99391,0.61287 10.2891,1.01208 5.515,-1.08616 11.03073,-2.16874 16.54645,-3.25131 z m 59.17242,-3.123273 c 8.96988,-1.760157 17.93257,-3.521054 26.89527,-5.281224 0.84879,-6.262364 -7.92688,-0.430862 -11.50907,-0.902022 -14.50863,2.847773 -29.01005,5.717851 -43.51867,8.577849 -1.71197,5.3064 4.12887,1.89613 7.15001,1.72421 6.99176,-1.37245 13.99071,-2.74563 20.98246,-4.118813 z m -58.05964,-5.608513 c 9.06914,-1.788939 18.13757,-3.577879 27.20816,-5.367531 1.52495,-6.388256 -6.89106,-0.864626 -10.26466,-1.220683 -14.96969,3.012499 -29.93868,6.037937 -44.91701,9.018065 -0.8675,6.541465 9.02958,-0.177666 12.71536,0.56827 5.087,-0.994106 10.17258,-1.994676 15.25815,-2.998121 z m 57.56332,-2.931929 c 9.13533,-1.792541 18.26346,-3.585081 27.39159,-5.378334 1.08616,-6.013481 -6.92702,-0.630834 -10.19273,-1.031502 -14.98336,2.953523 -29.97392,5.867473 -44.9573,8.838249 -0.23018,6.196199 9.46621,-0.246007 13.55913,0.353907 4.7331,-0.925039 9.46621,-1.852242 14.19931,-2.78232 z m -0.17983,-8.489381 c 9.09936,-1.829936 18.24907,-3.495872 27.31966,-5.433709 1.3595,-6.360204 -8.74691,0.204997 -12.28594,-0.526547 -14.113,2.757864 -28.27634,5.309281 -42.36056,8.180797 -1.50337,6.729196 8.77566,0.02231 12.45857,0.697736 4.95608,-0.973963 9.91218,-1.946476 14.86827,-2.918277 z"
         stroke-opacity="null"
         style="fill:#3c76e4;stroke:#0341b7;stroke-width:2.15795;stroke-linecap:round;stroke-linejoin:round;stroke-dasharray:none;fill-opacity:1;stroke-opacity:1"
         inkscape:connector-curvature="0" /></g><g
       id="imagebot_1-5"
       transform="matrix(1.6703724,0,0,1.6703724,2147.8645,365.1294)"
       style="stroke:#ec8390;stroke-opacity:1;fill:#be2639;fill-opacity:1"><title
         id="title12-5">Layer 1</title><line
         id="imagebot_9-4"
         stroke-linejoin="round"
         x1="52"
         stroke-opacity="null"
         fill-opacity="null"
         x2="548"
         stroke="#000000"
         stroke-linecap="round"
         stroke-dasharray="none"
         stroke-width="3"
         y1="107"
         y2="107"
         fill="none"
         style="fill:#be2639;stroke:#ec8390;stroke-opacity:1;fill-opacity:1" /><line
         id="imagebot_10-7"
         stroke-linejoin="round"
         x1="53"
         stroke-opacity="null"
         fill-opacity="null"
         x2="550"
         stroke="#000000"
         stroke-linecap="round"
         stroke-dasharray="none"
         stroke-width="3"
         y1="133"
         y2="134"
         fill="none"
         style="fill:#be2639;stroke:#ec8390;stroke-opacity:1;fill-opacity:1" /><line
         id="imagebot_11-6"
         stroke-linejoin="round"
         x1="54"
         stroke-opacity="null"
         fill-opacity="null"
         x2="553"
         stroke="#000000"
         stroke-linecap="round"
         stroke-dasharray="none"
         stroke-width="3"
         y1="161"
         y2="161"
         fill="none"
         style="fill:#be2639;stroke:#ec8390;stroke-opacity:1;fill-opacity:1" /><line
         id="imagebot_12-5"
         stroke-linejoin="round"
         x1="54"
         stroke-opacity="null"
         fill-opacity="null"
         x2="552"
         stroke="#000000"
         stroke-linecap="round"
         stroke-dasharray="none"
         stroke-width="3"
         y1="190"
         y2="188"
         fill="none"
         style="fill:#be2639;stroke:#ec8390;stroke-opacity:1;fill-opacity:1" /><path
         id="imagebot_13-6"
         stroke-linejoin="round"
         d="m 142.58,298.09 c -19.94,-3.17 -30.7,-32.79 -10.78,-43.64 20.76,-10.7 33.11,27.39 10.43,31.11 -12.42,4.65 16.13,12.44 21.45,4.62 16.62,-8.04 14.05,-28.98 10.05,-43.73 -1.39,-11.3 -3.12,-23.4 -17.38,-16.98 -34.39,2.77 -61.618,-32.12 -58.883,-64.76 0.929,-30.79 26.143,-51.87 44.823,-73.25 -6.13,-27.969 -7.99,-60.28 9.79,-84.653 16.37,-19.813 24.67,16.442 27.44,28.745 6.15,28.756 -6.11,58.975 -26.52,79.248 1.95,9.61 3.87,19.24 5.86,28.84 21.56,-4.16 42.14,14.06 43.32,35.4 3.33,19.28 -9.03,37.48 -25.92,45.76 -0.27,16.55 8.87,33.72 5.59,50.81 -3.16,17.67 -22.98,26.34 -39.27,22.48 z m 22.51,-75.41 c 6.11,-11.46 -4.97,-31.72 -5.58,-46.44 0.24,-25.67 -26.99,4.97 -18.89,17.58 2.4,7.46 23.23,21.14 4.09,12.7 -19.98,-11.96 -19.06,-42.73 -0.81,-55.72 15.32,-3.39 5.97,-23.83 3.08,-30.54 -18.81,17.14 -40.14,38.73 -36.89,66.48 2.44,26.01 30.8,41.79 55,35.94 z m 12.66,-4.96 c 17.94,-11.52 17.35,-41.75 -2.28,-51.12 -20.94,-11.07 -6.6,17.92 -6.21,28.96 2.9,4.23 1.26,28.84 8.49,22.16 z M 155.64,79.15 c 11.03,-13.352 23.65,-32.627 15.9,-50.28 -16.7,-11.019 -25.97,18.772 -26.38,31.816 -0.15,8.459 -1.4,37.613 10.48,18.464 z"
         stroke-opacity="null"
         transform="matrix(0.44744,0,0,0.44744,-13,68)"
         stroke="#000000"
         stroke-linecap="round"
         stroke-dasharray="none"
         stroke-width="3"
         fill="#aad4ff"
         style="fill:#be2639;stroke:#ec8390;stroke-opacity:1;fill-opacity:1" /><path
         id="imagebot_14-9"
         d="m 116.09017,187.27164 c -4.28035,-0.87023 -7.5136,-5.09397 -6.44529,-9.48749 1.52112,-6.15521 7.26597,-10.41433 13.0179,-12.43776 3.82754,-1.27349 8.17156,-1.08247 11.7727,0.80655 0.31838,-23.51712 0.13445,-47.04837 0.18395,-70.573961 1.30179,0 2.96441,-0.41885 2.61066,1.46097 0.18394,4.224451 2.25691,8.091611 5.4477,10.816891 7.11741,6.63133 15.12623,13.83009 16.76055,23.94018 0.46693,4.25911 -0.0353,8.56068 -0.97636,12.72074 2.8017,5.23546 2.63189,11.58168 1.49281,17.26286 -0.73579,2.99271 -1.9456,5.88635 -3.47379,8.56068 -3.61529,1.68385 0.43156,-2.75216 0.37498,-4.35108 1.95975,-4.79683 2.18616,-10.14548 1.2947,-15.19699 -1.93852,-7.40039 -9.26817,-11.00861 -15.15453,-14.8786 -2.13661,-0.83484 -6.69287,-5.86511 -5.78729,-0.93388 -0.19809,13.36455 -0.16272,26.72912 -0.22641,40.09369 -2.47621,6.19766 -8.14324,10.93078 -14.73708,12.11229 -2.01637,0.34668 -4.13178,0.48111 -6.1552,0.0849 v 0 z m 41.09126,-50.53631 c 0.0567,-7.59849 -5.61044,-13.75368 -11.15719,-18.26609 -2.78045,-2.09418 -5.72363,-4.31287 -8.84367,-5.66845 0.19102,4.37374 2.19323,8.63853 4.58456,12.26795 4.51382,6.04908 11.33406,10.09595 15.11207,16.75348 0.45279,-1.65555 0.31837,-3.38891 0.30423,-5.08689 z"
         stroke-opacity="null"
         inkscape:connector-curvature="0"
         style="fill:#be2639;stroke:#ec8390;stroke-width:2.12248;stroke-linecap:round;stroke-linejoin:round;stroke-dasharray:none;stroke-opacity:1;fill-opacity:1" /><path
         id="imagebot_15-3"
         d="m 173.27373,187.18677 c -5.74116,-1.03506 -7.72108,-8.28759 -4.29835,-12.6377 4.54313,-6.72099 14.26026,-11.24594 21.87436,-7.00774 0.15182,-23.66756 0.0643,-47.33511 0.0873,-71.000553 18.98453,-3.831732 38.01104,-7.465127 56.99906,-11.261336 -0.0421,26.524499 -0.077,53.049689 -0.11888,79.574909 -2.97935,8.02181 -12.58876,13.58185 -20.96029,11.09907 -4.98654,-1.49667 -6.18247,-7.92392 -3.40596,-11.86841 3.79762,-5.88173 10.87529,-9.91713 17.98795,-8.81562 2.02819,-0.20491 5.0145,3.08075 4.15428,-0.63642 V 98.855708 c -17.42143,3.508072 -34.88553,6.849672 -52.32025,10.319972 -0.0595,21.63587 0.14821,43.27523 -0.15527,64.91041 -0.5553,6.56712 -6.86226,11.05013 -12.7503,12.80556 -2.32613,0.39165 -4.74806,0.63643 -7.09378,0.29372 v 0 z m 45.45659,-88.205186 c 8.95901,-1.762417 17.91798,-3.503159 26.86299,-5.285169 1.14,-4.53734 -3.95845,-1.590526 -6.44823,-1.479672 -15.28834,3.017596 -30.58577,5.991347 -45.872,9.021237 -1.1393,4.53756 3.95845,1.59038 6.45103,1.47988 6.33633,-1.24838 12.67268,-2.49327 19.00621,-3.736055 z"
         stroke-opacity="null"
         style="fill:#be2639;stroke:#ec8390;stroke-width:2.09813;stroke-linecap:round;stroke-linejoin:round;stroke-dasharray:none;stroke-opacity:1;fill-opacity:1"
         inkscape:connector-curvature="0" /><path
         id="imagebot_19-7"
         d="m 483.52916,187.47063 c -4.23672,-0.71552 -8.17424,-4.60532 -7.37198,-9.14994 0.40328,-4.9826 4.36682,-8.99819 8.35203,-11.6391 5.30782,-3.61228 12.56274,-4.95658 18.41265,-1.83864 0.34257,-25.12985 0.14738,-50.26835 0.19946,-75.402538 3.686,-0.892879 2.49348,3.935356 3.33042,6.168207 0.80224,6.568001 5.20377,11.719741 9.58794,16.316401 5.43793,5.78484 11.21409,11.91661 12.97903,19.92607 1.93408,9.29739 -1.15348,18.80293 -5.15605,27.13328 -0.29054,2.67127 -5.19075,6.53506 -2.85773,1.70857 3.92885,-8.25231 7.17684,-17.75785 4.49258,-26.89478 -2.55417,-9.11959 -10.51159,-16.73444 -19.98678,-18.10043 -0.0608,19.25394 0.15173,38.51218 -0.22551,57.76612 -0.928,5.66776 -5.85422,9.87846 -10.79346,12.28088 -3.40846,1.48305 -7.25057,2.38071 -10.9626,1.7259 z"
         stroke-opacity="null"
         fill-opacity="null"
         inkscape:connector-curvature="0"
         style="fill:#be2639;stroke:#ec8390;stroke-width:1.30094;stroke-linecap:round;stroke-linejoin:round;stroke-dasharray:none;stroke-opacity:1;fill-opacity:1" /><path
         id="imagebot_26-4"
         d="m 261.30229,158.71305 c -6.22764,-1.12783 -8.37512,-8.99199 -4.66247,-13.71046 4.92794,-7.28874 15.4682,-12.19903 23.72669,-7.6033 0.1642,-25.75604 0.0691,-51.509776 0.0944,-77.268124 20.5941,-4.070176 41.22501,-7.916319 61.82524,-11.955805 -0.0383,28.770508 -0.0844,57.537179 -0.13043,86.306129 -3.23005,8.70811 -13.65676,14.73858 -22.73314,12.03791 -5.409,-1.61885 -6.70562,-8.59302 -3.69039,-12.86652 4.12004,-6.3757 11.79238,-10.75661 19.50308,-9.55973 2.20196,-0.22249 5.43969,3.33747 4.51134,-0.69051 -0.0768,-22.75922 0.19181,-45.521514 -0.19948,-68.273072 -3.35282,-1.247522 -9.32957,1.622699 -13.63375,1.855172 -14.3933,2.800403 -28.80963,5.451963 -43.16457,8.416555 0.43272,25.214381 0.23093,50.444095 0.16648,75.663075 0.76187,5.76193 -2.41142,11.17859 -7.23579,14.18615 -4.16378,3.02291 -9.30731,4.12005 -14.37719,3.46023 v 0 z"
         stroke-opacity="null"
         fill-opacity="null"
         style="fill:#be2639;stroke:#ec8390;stroke-width:2.3017;stroke-linecap:round;stroke-linejoin:round;stroke-dasharray:none;stroke-opacity:1;fill-opacity:1"
         inkscape:connector-curvature="0" /><path
         id="imagebot_31-5"
         d="m 340.21183,186.75772 c -6.87826,-0.92072 -8.85264,-9.7827 -4.29368,-14.40791 4.99133,-6.56736 14.54315,-10.71781 22.34413,-6.66806 0.31795,-25.03942 0.13812,-50.08531 0.18559,-75.125436 39.38474,-7.882278 78.82272,-15.501994 118.2269,-23.299392 -0.11516,27.68362 0.27333,55.373728 -0.27334,83.052298 -0.9495,7.14282 -8.23617,11.88312 -14.79634,13.36492 -5.74735,1.76232 -13.83966,-2.05724 -12.48015,-8.94112 1.68321,-7.44492 9.3655,-12.81103 16.7457,-13.4656 3.66131,-1.40267 9.69638,4.6396 8.02037,-2.06445 0.10078,-13.43682 0.0504,-26.87439 0.0575,-40.311211 -18.38574,3.594421 -36.76429,7.214021 -55.15001,10.820671 -0.1079,17.52831 0.26614,35.07245 -0.28054,52.58781 -1.53214,7.63915 -9.75394,12.68874 -17.17872,13.08437 -7.15865,1.38829 -13.01317,-6.92702 -8.6167,-12.99086 4.6324,-7.53124 15.20708,-12.60243 23.50799,-8.03476 0.15825,-14.69565 0.0719,-29.39129 0.0935,-44.0819 -18.44687,3.76059 -36.95561,7.22986 -55.40249,10.98973 -0.12376,17.74914 0.30283,35.51625 -0.33664,53.24742 -2.50106,8.12828 -12.1284,13.39368 -20.37249,12.24277 h 7e-5 z m 48.70852,-76.53529 c 9.05045,-1.80189 18.11672,-3.534 27.14415,-5.44739 1.41705,-6.504776 -8.61022,0.0418 -12.1802,-0.62868 -14.31943,2.82332 -28.64679,5.60779 -42.96335,8.44766 -1.08833,6.26957 7.34135,0.59559 10.7955,1.01782 5.73368,-1.13147 11.4688,-2.26081 17.2039,-3.38941 z m -1.04012,-8.4268 c 9.48059,-1.866619 18.96982,-3.708796 28.44321,-5.595558 0.78406,-6.281082 -8.22179,-0.133834 -11.73493,-0.74306 -14.51796,2.842021 -29.02947,5.717138 -43.54383,8.577848 -1.3329,6.06959 6.99391,0.61287 10.2891,1.01208 5.515,-1.08616 11.03073,-2.16874 16.54645,-3.25131 z m 59.17242,-3.123273 c 8.96988,-1.760157 17.93257,-3.521054 26.89527,-5.281224 0.84879,-6.262364 -7.92688,-0.430862 -11.50907,-0.902022 -14.50863,2.847773 -29.01005,5.717851 -43.51867,8.577849 -1.71197,5.3064 4.12887,1.89613 7.15001,1.72421 6.99176,-1.37245 13.99071,-2.74563 20.98246,-4.118813 z m -58.05964,-5.608513 c 9.06914,-1.788939 18.13757,-3.577879 27.20816,-5.367531 1.52495,-6.388256 -6.89106,-0.864626 -10.26466,-1.220683 -14.96969,3.012499 -29.93868,6.037937 -44.91701,9.018065 -0.8675,6.541465 9.02958,-0.177666 12.71536,0.56827 5.087,-0.994106 10.17258,-1.994676 15.25815,-2.998121 z m 57.56332,-2.931929 c 9.13533,-1.792541 18.26346,-3.585081 27.39159,-5.378334 1.08616,-6.013481 -6.92702,-0.630834 -10.19273,-1.031502 -14.98336,2.953523 -29.97392,5.867473 -44.9573,8.838249 -0.23018,6.196199 9.46621,-0.246007 13.55913,0.353907 4.7331,-0.925039 9.46621,-1.852242 14.19931,-2.78232 z m -0.17983,-8.489381 c 9.09936,-1.829936 18.24907,-3.495872 27.31966,-5.433709 1.3595,-6.360204 -8.74691,0.204997 -12.28594,-0.526547 -14.113,2.757864 -28.27634,5.309281 -42.36056,8.180797 -1.50337,6.729196 8.77566,0.02231 12.45857,0.697736 4.95608,-0.973963 9.91218,-1.946476 14.86827,-2.918277 z"
         stroke-opacity="null"
         style="fill:#be2639;stroke:#ec8390;stroke-width:2.15795;stroke-linecap:round;stroke-linejoin:round;stroke-dasharray:none;stroke-opacity:1;fill-opacity:1"
         inkscape:connector-curvature="0" /></g><g
       id="imagebot_1-2"
       transform="matrix(1.6703724,0,0,1.6703724,3486.4647,365.1294)"
       style="fill:#7bf46e;fill-opacity:1;stroke:#20cb11;stroke-opacity:1"><title
         id="title12-54">Layer 1</title><line
         id="imagebot_9-7"
         stroke-linejoin="round"
         x1="52"
         stroke-opacity="null"
         fill-opacity="null"
         x2="548"
         stroke="#000000"
         stroke-linecap="round"
         stroke-dasharray="none"
         stroke-width="3"
         y1="107"
         y2="107"
         fill="none"
         style="fill:#7bf46e;fill-opacity:1;stroke:#20cb11;stroke-opacity:1" /><line
         id="imagebot_10-4"
         stroke-linejoin="round"
         x1="53"
         stroke-opacity="null"
         fill-opacity="null"
         x2="550"
         stroke="#000000"
         stroke-linecap="round"
         stroke-dasharray="none"
         stroke-width="3"
         y1="133"
         y2="134"
         fill="none"
         style="fill:#7bf46e;fill-opacity:1;stroke:#20cb11;stroke-opacity:1" /><line
         id="imagebot_11-4"
         stroke-linejoin="round"
         x1="54"
         stroke-opacity="null"
         fill-opacity="null"
         x2="553"
         stroke="#000000"
         stroke-linecap="round"
         stroke-dasharray="none"
         stroke-width="3"
         y1="161"
         y2="161"
         fill="none"
         style="fill:#7bf46e;fill-opacity:1;stroke:#20cb11;stroke-opacity:1" /><line
         id="imagebot_12-3"
         stroke-linejoin="round"
         x1="54"
         stroke-opacity="null"
         fill-opacity="null"
         x2="552"
         stroke="#000000"
         stroke-linecap="round"
         stroke-dasharray="none"
         stroke-width="3"
         y1="190"
         y2="188"
         fill="none"
         style="fill:#7bf46e;fill-opacity:1;stroke:#20cb11;stroke-opacity:1" /><path
         id="imagebot_13-0"
         stroke-linejoin="round"
         d="m 142.58,298.09 c -19.94,-3.17 -30.7,-32.79 -10.78,-43.64 20.76,-10.7 33.11,27.39 10.43,31.11 -12.42,4.65 16.13,12.44 21.45,4.62 16.62,-8.04 14.05,-28.98 10.05,-43.73 -1.39,-11.3 -3.12,-23.4 -17.38,-16.98 -34.39,2.77 -61.618,-32.12 -58.883,-64.76 0.929,-30.79 26.143,-51.87 44.823,-73.25 -6.13,-27.969 -7.99,-60.28 9.79,-84.653 16.37,-19.813 24.67,16.442 27.44,28.745 6.15,28.756 -6.11,58.975 -26.52,79.248 1.95,9.61 3.87,19.24 5.86,28.84 21.56,-4.16 42.14,14.06 43.32,35.4 3.33,19.28 -9.03,37.48 -25.92,45.76 -0.27,16.55 8.87,33.72 5.59,50.81 -3.16,17.67 -22.98,26.34 -39.27,22.48 z m 22.51,-75.41 c 6.11,-11.46 -4.97,-31.72 -5.58,-46.44 0.24,-25.67 -26.99,4.97 -18.89,17.58 2.4,7.46 23.23,21.14 4.09,12.7 -19.98,-11.96 -19.06,-42.73 -0.81,-55.72 15.32,-3.39 5.97,-23.83 3.08,-30.54 -18.81,17.14 -40.14,38.73 -36.89,66.48 2.44,26.01 30.8,41.79 55,35.94 z m 12.66,-4.96 c 17.94,-11.52 17.35,-41.75 -2.28,-51.12 -20.94,-11.07 -6.6,17.92 -6.21,28.96 2.9,4.23 1.26,28.84 8.49,22.16 z M 155.64,79.15 c 11.03,-13.352 23.65,-32.627 15.9,-50.28 -16.7,-11.019 -25.97,18.772 -26.38,31.816 -0.15,8.459 -1.4,37.613 10.48,18.464 z"
         stroke-opacity="null"
         transform="matrix(0.44744,0,0,0.44744,-13,68)"
         stroke="#000000"
         stroke-linecap="round"
         stroke-dasharray="none"
         stroke-width="3"
         fill="#aad4ff"
         style="fill:#7bf46e;fill-opacity:1;stroke:#20cb11;stroke-opacity:1" /><path
         id="imagebot_14-7"
         d="m 116.09017,187.27164 c -4.28035,-0.87023 -7.5136,-5.09397 -6.44529,-9.48749 1.52112,-6.15521 7.26597,-10.41433 13.0179,-12.43776 3.82754,-1.27349 8.17156,-1.08247 11.7727,0.80655 0.31838,-23.51712 0.13445,-47.04837 0.18395,-70.573961 1.30179,0 2.96441,-0.41885 2.61066,1.46097 0.18394,4.224451 2.25691,8.091611 5.4477,10.816891 7.11741,6.63133 15.12623,13.83009 16.76055,23.94018 0.46693,4.25911 -0.0353,8.56068 -0.97636,12.72074 2.8017,5.23546 2.63189,11.58168 1.49281,17.26286 -0.73579,2.99271 -1.9456,5.88635 -3.47379,8.56068 -3.61529,1.68385 0.43156,-2.75216 0.37498,-4.35108 1.95975,-4.79683 2.18616,-10.14548 1.2947,-15.19699 -1.93852,-7.40039 -9.26817,-11.00861 -15.15453,-14.8786 -2.13661,-0.83484 -6.69287,-5.86511 -5.78729,-0.93388 -0.19809,13.36455 -0.16272,26.72912 -0.22641,40.09369 -2.47621,6.19766 -8.14324,10.93078 -14.73708,12.11229 -2.01637,0.34668 -4.13178,0.48111 -6.1552,0.0849 v 0 z m 41.09126,-50.53631 c 0.0567,-7.59849 -5.61044,-13.75368 -11.15719,-18.26609 -2.78045,-2.09418 -5.72363,-4.31287 -8.84367,-5.66845 0.19102,4.37374 2.19323,8.63853 4.58456,12.26795 4.51382,6.04908 11.33406,10.09595 15.11207,16.75348 0.45279,-1.65555 0.31837,-3.38891 0.30423,-5.08689 z"
         stroke-opacity="null"
         inkscape:connector-curvature="0"
         style="fill:#7bf46e;stroke:#20cb11;stroke-width:2.12248;stroke-linecap:round;stroke-linejoin:round;stroke-dasharray:none;fill-opacity:1;stroke-opacity:1" /><path
         id="imagebot_15-8"
         d="m 173.27373,187.18677 c -5.74116,-1.03506 -7.72108,-8.28759 -4.29835,-12.6377 4.54313,-6.72099 14.26026,-11.24594 21.87436,-7.00774 0.15182,-23.66756 0.0643,-47.33511 0.0873,-71.000553 18.98453,-3.831732 38.01104,-7.465127 56.99906,-11.261336 -0.0421,26.524499 -0.077,53.049689 -0.11888,79.574909 -2.97935,8.02181 -12.58876,13.58185 -20.96029,11.09907 -4.98654,-1.49667 -6.18247,-7.92392 -3.40596,-11.86841 3.79762,-5.88173 10.87529,-9.91713 17.98795,-8.81562 2.02819,-0.20491 5.0145,3.08075 4.15428,-0.63642 V 98.855708 c -17.42143,3.508072 -34.88553,6.849672 -52.32025,10.319972 -0.0595,21.63587 0.14821,43.27523 -0.15527,64.91041 -0.5553,6.56712 -6.86226,11.05013 -12.7503,12.80556 -2.32613,0.39165 -4.74806,0.63643 -7.09378,0.29372 v 0 z m 45.45659,-88.205186 c 8.95901,-1.762417 17.91798,-3.503159 26.86299,-5.285169 1.14,-4.53734 -3.95845,-1.590526 -6.44823,-1.479672 -15.28834,3.017596 -30.58577,5.991347 -45.872,9.021237 -1.1393,4.53756 3.95845,1.59038 6.45103,1.47988 6.33633,-1.24838 12.67268,-2.49327 19.00621,-3.736055 z"
         stroke-opacity="null"
         style="fill:#7bf46e;stroke:#20cb11;stroke-width:2.09813;stroke-linecap:round;stroke-linejoin:round;stroke-dasharray:none;fill-opacity:1;stroke-opacity:1"
         inkscape:connector-curvature="0" /><path
         id="imagebot_19-6"
         d="m 483.52916,187.47063 c -4.23672,-0.71552 -8.17424,-4.60532 -7.37198,-9.14994 0.40328,-4.9826 4.36682,-8.99819 8.35203,-11.6391 5.30782,-3.61228 12.56274,-4.95658 18.41265,-1.83864 0.34257,-25.12985 0.14738,-50.26835 0.19946,-75.402538 3.686,-0.892879 2.49348,3.935356 3.33042,6.168207 0.80224,6.568001 5.20377,11.719741 9.58794,16.316401 5.43793,5.78484 11.21409,11.91661 12.97903,19.92607 1.93408,9.29739 -1.15348,18.80293 -5.15605,27.13328 -0.29054,2.67127 -5.19075,6.53506 -2.85773,1.70857 3.92885,-8.25231 7.17684,-17.75785 4.49258,-26.89478 -2.55417,-9.11959 -10.51159,-16.73444 -19.98678,-18.10043 -0.0608,19.25394 0.15173,38.51218 -0.22551,57.76612 -0.928,5.66776 -5.85422,9.87846 -10.79346,12.28088 -3.40846,1.48305 -7.25057,2.38071 -10.9626,1.7259 z"
         stroke-opacity="null"
         fill-opacity="null"
         inkscape:connector-curvature="0"
         style="fill:#7bf46e;stroke:#20cb11;stroke-width:1.30094;stroke-linecap:round;stroke-linejoin:round;stroke-dasharray:none;fill-opacity:1;stroke-opacity:1" /><path
         id="imagebot_26-8"
         d="m 261.30229,158.71305 c -6.22764,-1.12783 -8.37512,-8.99199 -4.66247,-13.71046 4.92794,-7.28874 15.4682,-12.19903 23.72669,-7.6033 0.1642,-25.75604 0.0691,-51.509776 0.0944,-77.268124 20.5941,-4.070176 41.22501,-7.916319 61.82524,-11.955805 -0.0383,28.770508 -0.0844,57.537179 -0.13043,86.306129 -3.23005,8.70811 -13.65676,14.73858 -22.73314,12.03791 -5.409,-1.61885 -6.70562,-8.59302 -3.69039,-12.86652 4.12004,-6.3757 11.79238,-10.75661 19.50308,-9.55973 2.20196,-0.22249 5.43969,3.33747 4.51134,-0.69051 -0.0768,-22.75922 0.19181,-45.521514 -0.19948,-68.273072 -3.35282,-1.247522 -9.32957,1.622699 -13.63375,1.855172 -14.3933,2.800403 -28.80963,5.451963 -43.16457,8.416555 0.43272,25.214381 0.23093,50.444095 0.16648,75.663075 0.76187,5.76193 -2.41142,11.17859 -7.23579,14.18615 -4.16378,3.02291 -9.30731,4.12005 -14.37719,3.46023 v 0 z"
         stroke-opacity="null"
         fill-opacity="null"
         style="fill:#7bf46e;stroke:#20cb11;stroke-width:2.3017;stroke-linecap:round;stroke-linejoin:round;stroke-dasharray:none;fill-opacity:1;stroke-opacity:1"
         inkscape:connector-curvature="0" /><path
         id="imagebot_31-8"
         d="m 340.21183,186.75772 c -6.87826,-0.92072 -8.85264,-9.7827 -4.29368,-14.40791 4.99133,-6.56736 14.54315,-10.71781 22.34413,-6.66806 0.31795,-25.03942 0.13812,-50.08531 0.18559,-75.125436 39.38474,-7.882278 78.82272,-15.501994 118.2269,-23.299392 -0.11516,27.68362 0.27333,55.373728 -0.27334,83.052298 -0.9495,7.14282 -8.23617,11.88312 -14.79634,13.36492 -5.74735,1.76232 -13.83966,-2.05724 -12.48015,-8.94112 1.68321,-7.44492 9.3655,-12.81103 16.7457,-13.4656 3.66131,-1.40267 9.69638,4.6396 8.02037,-2.06445 0.10078,-13.43682 0.0504,-26.87439 0.0575,-40.311211 -18.38574,3.594421 -36.76429,7.214021 -55.15001,10.820671 -0.1079,17.52831 0.26614,35.07245 -0.28054,52.58781 -1.53214,7.63915 -9.75394,12.68874 -17.17872,13.08437 -7.15865,1.38829 -13.01317,-6.92702 -8.6167,-12.99086 4.6324,-7.53124 15.20708,-12.60243 23.50799,-8.03476 0.15825,-14.69565 0.0719,-29.39129 0.0935,-44.0819 -18.44687,3.76059 -36.95561,7.22986 -55.40249,10.98973 -0.12376,17.74914 0.30283,35.51625 -0.33664,53.24742 -2.50106,8.12828 -12.1284,13.39368 -20.37249,12.24277 h 7e-5 z m 48.70852,-76.53529 c 9.05045,-1.80189 18.11672,-3.534 27.14415,-5.44739 1.41705,-6.504776 -8.61022,0.0418 -12.1802,-0.62868 -14.31943,2.82332 -28.64679,5.60779 -42.96335,8.44766 -1.08833,6.26957 7.34135,0.59559 10.7955,1.01782 5.73368,-1.13147 11.4688,-2.26081 17.2039,-3.38941 z m -1.04012,-8.4268 c 9.48059,-1.866619 18.96982,-3.708796 28.44321,-5.595558 0.78406,-6.281082 -8.22179,-0.133834 -11.73493,-0.74306 -14.51796,2.842021 -29.02947,5.717138 -43.54383,8.577848 -1.3329,6.06959 6.99391,0.61287 10.2891,1.01208 5.515,-1.08616 11.03073,-2.16874 16.54645,-3.25131 z m 59.17242,-3.123273 c 8.96988,-1.760157 17.93257,-3.521054 26.89527,-5.281224 0.84879,-6.262364 -7.92688,-0.430862 -11.50907,-0.902022 -14.50863,2.847773 -29.01005,5.717851 -43.51867,8.577849 -1.71197,5.3064 4.12887,1.89613 7.15001,1.72421 6.99176,-1.37245 13.99071,-2.74563 20.98246,-4.118813 z m -58.05964,-5.608513 c 9.06914,-1.788939 18.13757,-3.577879 27.20816,-5.367531 1.52495,-6.388256 -6.89106,-0.864626 -10.26466,-1.220683 -14.96969,3.012499 -29.93868,6.037937 -44.91701,9.018065 -0.8675,6.541465 9.02958,-0.177666 12.71536,0.56827 5.087,-0.994106 10.17258,-1.994676 15.25815,-2.998121 z m 57.56332,-2.931929 c 9.13533,-1.792541 18.26346,-3.585081 27.39159,-5.378334 1.08616,-6.013481 -6.92702,-0.630834 -10.19273,-1.031502 -14.98336,2.953523 -29.97392,5.867473 -44.9573,8.838249 -0.23018,6.196199 9.46621,-0.246007 13.55913,0.353907 4.7331,-0.925039 9.46621,-1.852242 14.19931,-2.78232 z m -0.17983,-8.489381 c 9.09936,-1.829936 18.24907,-3.495872 27.31966,-5.433709 1.3595,-6.360204 -8.74691,0.204997 -12.28594,-0.526547 -14.113,2.757864 -28.27634,5.309281 -42.36056,8.180797 -1.50337,6.729196 8.77566,0.02231 12.45857,0.697736 4.95608,-0.973963 9.91218,-1.946476 14.86827,-2.918277 z"
         stroke-opacity="null"
         style="fill:#7bf46e;stroke:#20cb11;stroke-width:2.15795;stroke-linecap:round;stroke-linejoin:round;stroke-dasharray:none;fill-opacity:1;stroke-opacity:1"
         inkscape:connector-curvature="0" /></g></g></svg>
